<?xml version="1.0" standalone="no"?>
<!DOCTYPE svg PUBLIC "-//W3C//DTD SVG 20010904//EN"
 "http://www.w3.org/TR/2001/REC-SVG-20010904/DTD/svg10.dtd">
<svg version="1.0" xmlns="http://www.w3.org/2000/svg"
 width="425.000000pt" height="425.000000pt" viewBox="0 0 425.000000 425.000000"
 preserveAspectRatio="xMidYMid meet">
<metadata>
Created by potrace 1.14, written by Peter Selinger 2001-2017
</metadata>
<g transform="translate(0.000000,425.000000) scale(0.100000,-0.100000)"
fill="#000000" stroke="none">
<path d="M1395 4168 c-8 -5 -15 -16 -15 -23 0 -8 -3 -15 -8 -15 -4 0 -13 -10
-21 -22 -19 -30 -32 -88 -19 -88 5 0 6 -4 3 -10 -3 -5 -1 -10 5 -10 6 0 9 -4
6 -8 -3 -5 11 -22 30 -37 32 -26 35 -32 30 -67 -3 -21 -10 -47 -16 -57 -5 -11
-10 -29 -10 -40 0 -12 -4 -21 -10 -21 -5 0 -7 -7 -4 -15 4 -8 2 -21 -4 -28 -6
-6 -11 -15 -11 -19 -1 -5 -1 -9 -2 -10 0 -2 -2 -13 -3 -26 -3 -22 -19 -42 -88
-112 -21 -20 -38 -41 -38 -46 0 -5 -9 -15 -20 -22 -11 -7 -20 -17 -20 -22 0
-6 -8 -19 -17 -29 -10 -10 -28 -31 -40 -46 l-23 -26 -32 22 c-18 13 -38 30
-45 39 -7 8 -13 11 -13 5 0 -5 -7 1 -16 13 -8 12 -19 20 -24 17 -4 -3 -10 -2
-12 2 -1 5 -30 28 -63 52 -33 25 -62 47 -65 51 -3 3 -22 16 -42 29 -21 12 -38
27 -38 32 0 6 -4 7 -10 4 -6 -4 -10 18 -10 58 0 71 -18 117 -55 141 -29 19
-105 37 -105 25 0 -5 -7 -9 -16 -9 -9 0 -31 -15 -49 -33 -42 -42 -54 -105 -30
-162 22 -55 39 -71 91 -85 31 -9 44 -18 45 -31 2 -20 5 -37 8 -41 2 -2 4 -14
6 -28 8 -44 10 -55 17 -66 8 -11 20 -82 21 -121 1 -13 5 -23 10 -23 5 0 7 -9
4 -20 -3 -11 -2 -22 3 -25 4 -3 11 -24 14 -47 4 -24 18 -88 31 -142 18 -74 23
-114 19 -161 -4 -43 0 -80 11 -119 9 -32 14 -60 11 -63 -3 -4 -6 -1 -6 5 0 6
-16 16 -35 22 -20 7 -35 18 -35 27 0 9 -3 14 -6 11 -3 -4 -17 0 -31 7 -15 8
-30 12 -35 9 -5 -3 -14 -1 -21 4 -13 10 -145 11 -162 1 -5 -3 -22 -9 -37 -13
-59 -14 -130 -72 -178 -146 -16 -25 -34 -51 -40 -57 -6 -7 -10 -15 -9 -18 0
-3 -5 -20 -12 -38 -6 -18 -11 -36 -10 -41 1 -4 -3 -13 -8 -20 -6 -7 -10 -21
-9 -31 0 -11 -2 -34 -6 -52 -3 -17 -2 -34 3 -37 4 -3 6 -17 3 -31 -3 -16 0
-25 8 -25 10 0 10 -3 0 -15 -8 -10 -9 -15 -2 -15 11 0 75 -86 78 -105 5 -28
11 -42 34 -81 29 -48 116 -167 146 -201 12 -13 32 -39 45 -58 13 -19 34 -37
46 -40 12 -3 48 -29 80 -59 64 -59 131 -100 184 -111 48 -11 99 -13 105 -3 3
4 14 8 24 8 19 0 19 -5 3 -47 -7 -19 -11 -33 -17 -60 -3 -10 -5 -18 -6 -18 -1
0 -4 -13 -6 -30 -3 -16 -8 -32 -12 -35 -4 -3 -7 -9 -7 -15 -1 -5 -6 -21 -12
-35 -7 -14 -26 -65 -44 -115 -33 -92 -53 -125 -75 -125 -7 0 -25 -33 -40 -72
-34 -91 -76 -158 -142 -225 -28 -29 -47 -55 -42 -58 4 -3 42 13 84 35 42 21
79 39 81 40 3 0 6 0 8 1 16 5 49 4 53 -2 2 -5 -1 -18 -8 -30 -13 -22 -23 -35
-67 -83 -19 -21 -20 -26 -7 -26 9 0 24 4 34 9 9 6 49 20 87 32 39 12 75 26 81
30 6 5 78 10 160 11 82 0 158 4 169 8 11 4 30 4 43 -1 13 -5 41 -11 62 -14 51
-6 64 -9 70 -15 3 -3 32 -14 65 -25 113 -37 216 -96 282 -164 35 -34 61 -67
58 -72 -3 -4 3 -13 13 -18 18 -9 59 -111 56 -138 -1 -7 2 -13 7 -13 5 0 8 -3
7 -8 -1 -4 2 -23 6 -42 4 -19 9 -44 11 -55 2 -11 4 -21 5 -22 2 -2 3 -6 4 -10
1 -5 7 -28 14 -53 l13 -45 299 0 298 -1 -13 26 c-14 26 -17 120 -4 120 4 0 6
8 5 18 -2 9 0 19 3 22 12 9 45 64 75 125 16 33 42 75 58 93 15 18 28 36 28 41
0 4 21 23 48 41 26 19 58 45 72 57 14 13 30 23 36 23 6 0 24 11 40 25 16 14
39 25 51 25 12 0 29 7 37 16 9 8 16 12 16 9 0 -4 11 0 24 8 30 20 63 28 146
34 36 2 78 8 95 12 16 4 53 4 81 -1 39 -6 59 -4 80 7 18 9 32 11 39 5 6 -5 30
-12 54 -15 23 -3 50 -9 60 -15 10 -5 21 -6 25 -3 3 3 6 1 6 -5 0 -7 6 -12 14
-12 8 0 27 -5 43 -12 15 -6 36 -10 46 -9 9 1 17 -3 17 -9 0 -6 4 -9 9 -6 4 3
19 -3 31 -14 13 -11 29 -20 37 -20 24 0 9 34 -34 77 -24 23 -43 49 -43 58 0
22 46 19 72 -5 12 -11 32 -20 44 -20 12 0 30 -7 38 -16 9 -8 20 -12 26 -9 5 3
10 1 10 -5 0 -6 4 -9 9 -5 5 3 12 1 16 -5 3 -5 11 -10 17 -10 6 0 -17 27 -51
60 -33 33 -61 67 -61 76 0 8 -5 12 -10 9 -6 -4 -18 11 -26 32 -9 21 -19 40
-23 43 -9 8 -61 89 -61 96 0 4 -11 21 -24 38 -13 17 -26 40 -29 51 -4 11 -17
31 -29 45 -13 14 -24 36 -26 50 -2 14 -15 44 -28 68 -14 23 -22 47 -19 52 3 5
-2 31 -11 57 -9 27 -17 59 -19 73 -2 14 -8 37 -14 53 -6 15 -8 27 -5 27 4 0 1
6 -5 13 -8 10 -7 18 2 31 11 15 16 15 47 3 30 -12 45 -12 105 0 39 8 77 21 86
29 9 8 21 14 27 12 10 -3 62 51 62 64 0 4 10 10 23 13 12 4 47 33 77 66 70 74
76 82 76 92 -1 5 7 13 16 18 10 6 18 17 18 24 0 8 4 15 9 15 14 0 115 218 127
273 1 4 3 8 4 10 5 6 9 70 10 157 0 104 -2 129 -14 148 -4 6 -4 17 -1 22 3 6
2 10 -4 10 -6 0 -18 16 -27 36 -19 39 -53 77 -84 94 -11 6 -20 18 -20 26 0 8
-5 12 -10 9 -6 -4 -22 1 -35 9 -14 9 -25 14 -25 10 0 -4 -7 -1 -15 6 -8 6 -19
9 -24 6 -5 -4 -12 -2 -16 4 -7 11 -108 14 -119 3 -3 -4 -16 -8 -29 -10 -45 -6
-75 -15 -108 -33 -9 -4 -21 -5 -27 -1 -13 8 -5 51 9 51 5 0 9 6 9 13 0 7 12
25 26 40 14 16 27 35 28 43 1 9 9 20 17 25 8 5 10 9 4 9 -7 0 -7 3 0 8 13 9
135 195 135 206 0 4 20 34 45 66 38 49 49 58 72 55 15 -1 46 7 69 18 80 38
114 148 64 202 -11 12 -18 24 -15 27 12 12 -58 34 -102 33 -66 -3 -76 -6 -93
-35 -19 -30 -50 -125 -50 -152 0 -24 -22 -43 -113 -100 -37 -24 -87 -55 -110
-70 -84 -54 -118 -68 -134 -55 -79 65 -103 107 -60 107 13 0 27 3 31 8 4 4 11
7 14 7 37 3 127 81 147 127 16 39 10 54 -12 32 -13 -13 -29 -15 -77 -10 -87 9
-86 8 -86 18 0 5 -4 7 -9 4 -5 -3 -26 2 -47 11 -22 9 -47 17 -57 18 -19 2 -36
21 -38 43 0 6 -2 43 -2 82 -2 68 -1 70 26 76 15 3 27 10 27 15 0 5 7 9 15 9 9
0 19 8 22 18 4 9 11 20 16 24 19 12 20 113 2 151 -16 34 -75 74 -102 69 -6 -1
-14 2 -18 8 -5 8 -11 8 -21 -1 -7 -6 -21 -9 -29 -5 -8 3 -15 1 -15 -4 0 -5
-11 -12 -24 -16 -13 -3 -27 -13 -30 -22 -17 -46 -38 -73 -54 -68 -9 3 -34 8
-54 12 -21 3 -38 9 -38 13 0 10 -274 7 -282 -4 -5 -6 -11 -6 -18 1 -8 8 -1 18
27 34 41 25 44 26 113 36 25 3 49 8 53 11 9 6 125 6 159 0 13 -2 17 -2 10 0
-7 3 -10 9 -7 14 6 8 -23 14 -52 10 -7 -1 -13 3 -13 9 0 6 -4 8 -10 5 -5 -3
-10 -1 -10 5 0 6 -4 9 -9 5 -5 -3 -12 -1 -16 5 -4 6 -11 8 -16 4 -5 -3 -16 -1
-23 5 -7 6 -24 11 -37 12 -64 1 -128 7 -135 11 -5 3 -38 5 -74 4 -64 -2 -95 7
-84 25 3 5 0 9 -6 9 -6 0 -9 4 -5 9 3 5 1 12 -5 16 -6 4 -8 10 -6 14 8 12 -46
57 -76 65 -16 3 -28 10 -28 15 0 8 -23 6 -78 -5 -12 -2 -39 -20 -59 -39 -31
-30 -37 -42 -41 -90 -3 -42 -1 -55 9 -55 10 -1 8 -5 -5 -15 -10 -8 -23 -12
-27 -9 -5 3 -9 0 -9 -5 0 -6 -3 -10 -7 -9 -5 1 -18 -3 -30 -10 -12 -7 -36 -14
-53 -15 -18 -2 -35 -8 -38 -14 -4 -5 -27 -19 -52 -30 -25 -12 -72 -39 -105
-61 -60 -40 -92 -39 -54 1 10 12 19 24 19 28 0 8 58 69 66 69 2 0 25 15 51 34
27 18 63 39 81 47 17 8 32 17 32 20 0 14 -126 -7 -136 -22 -3 -5 -10 -7 -15
-4 -5 4 -9 1 -9 -4 0 -6 -5 -11 -10 -11 -6 0 -25 -6 -43 -13 -18 -8 -36 -15
-42 -16 -5 -2 -16 -8 -24 -14 -7 -6 -20 -12 -29 -14 -9 -1 -21 -8 -27 -15 -12
-16 -122 -74 -127 -68 -2 3 -11 21 -21 40 -9 19 -26 49 -37 67 l-19 32 29 43
c39 57 41 124 6 165 -23 27 -29 28 -110 29 -47 0 -92 -4 -101 -8z m1695 -490
l20 -41 -26 -24 c-14 -12 -22 -23 -18 -23 4 0 -5 -13 -20 -29 l-28 -29 -56 16
c-32 9 -58 18 -59 21 -2 3 -34 5 -73 3 -59 -3 -70 -1 -70 12 0 9 8 20 18 23 9
4 19 9 22 13 12 15 105 61 134 66 17 3 35 9 40 14 5 5 14 6 21 4 7 -3 16 -1
20 5 3 6 17 11 30 11 19 0 29 -10 45 -42z"/>
<path d="M2126 3978 c3 -5 10 -6 15 -3 13 9 11 12 -6 12 -8 0 -12 -4 -9 -9z"/>
<path d="M590 739 c0 -5 5 -7 10 -4 6 3 10 8 10 11 0 2 -4 4 -10 4 -5 0 -10
-5 -10 -11z"/>
</g>
</svg>
